<svg xmlns="http://www.w3.org/2000/svg" viewBox="0 0 135.8 137.05"><defs><style>.cls-1{fill:#fff;}.cls-2,.cls-3{fill:none;stroke:#fff;stroke-width:3px;}.cls-2{stroke-linecap:round;stroke-linejoin:round;}.cls-3{stroke-miterlimit:10;}</style></defs><title>Asset 4</title><g id="Layer_2" data-name="Layer 2"><g id="White_Bird_Color_back" data-name="White Bird/Color back"><g id="Bird-2"><path class="cls-1" d="M68.38,110.83A55.42,55.42,0,1,1,123.8,55.41,55.48,55.48,0,0,1,68.38,110.83ZM68.38,3A52.42,52.42,0,1,0,120.8,55.41,52.47,52.47,0,0,0,68.38,3Z"/><path class="cls-2" d="M76.45,19.31c1.76,7,3.74,19.87-2.63,31.56C63.19,70.36,33.06,79.7,1.5,68.75"/><path class="cls-2" d="M11.76,135.55c11.15-48.36,29.39-77.93,40.49-93.1,6.57-9,18-24.72,35.83-31.66,19.53-7.59,34.29-4.42,46.22-3a46,46,0,0,0-26.08,11.34C97.29,28.54,91.46,40.14,90.65,41.4c-9.73,15.25-21.93,22.18-70,39.07"/><path class="cls-3" d="M108.22,19.46c1.69,7.33,3.28,20.1-2.84,32.31-10.58,21.11-40.13,32.49-72.23,25"/><path class="cls-3" d="M33.15,76.36c7.59-12.42,16.37-14.54,18.58-15,15.67-3.1,36.32,12.15,44.18,40"/><path class="cls-3" d="M80.53,73.37A40.54,40.54,0,0,0,71,65.62c-2.68-1.56-8.81-5.14-15.45-5.09C42.28,60.64,33.8,75.2,33.15,76.36a70.19,70.19,0,0,0,12.92,2.42A73.52,73.52,0,0,0,80.53,73.37Z"/></g></g></g></svg>